<?xml version="1.0" encoding="UTF-8"?>
<svg id="Layer_1" data-name="Layer 1" xmlns="http://www.w3.org/2000/svg" viewBox="0 0 200 200">
  <defs>
    <style>
      .cls-1 {
        fill: #8284ad;
      }

      .cls-2 {
        fill: #a7a8c5;
      }

      .cls-3 {
        fill: #8cceef;
      }

      .cls-4 {
        fill: #00a7e1;
      }

      .cls-5 {
        fill: #545a8e;
      }

      .cls-6 {
        fill: #001f60;
      }

      .cls-7 {
        fill: #56bde9;
      }
    </style>
  </defs>
  <path class="cls-7" d="m65.61,182.51l-43.67-43.17,53.86-57.5v-46.23h-4.87V14.73h63.79v20.87h-4.87v46.26l53.87,57.47-43.68,43.17h-74.43Zm65.83-20.86l22.72-22.33-45.17-48.82v-54.87h-12.33v54.85s-45.17,48.83-45.17,48.83l22.73,22.33h57.22Z"/>
  <polygon class="cls-7" points="108.99 90.5 129.85 81.87 154.16 139.31 108.99 90.5"/>
  <polygon class="cls-4" points="129.85 81.87 154.16 139.31 183.72 139.31 129.85 81.87"/>
  <polygon class="cls-7" points="96.67 90.48 75.8 81.83 51.5 139.31 96.67 90.48"/>
  <polygon class="cls-4" points="75.8 81.83 21.94 139.31 51.5 139.31 75.8 81.83"/>
  <polygon class="cls-4" points="75.8 44.07 96.67 90.48 75.8 81.83 75.8 44.07"/>
  <polygon class="cls-4" points="129.85 44.07 108.99 90.5 129.85 81.87 129.85 44.07"/>
  <g>
    <polygon class="cls-6" points="44.51 161.64 161.15 161.64 65.61 182.51 44.51 161.64"/>
    <polygon class="cls-2" points="65.61 182.51 140.05 182.51 44.51 161.64 65.61 182.51"/>
    <polygon class="cls-5" points="44.51 161.64 65.61 182.51 102.83 174.38 44.51 161.64"/>
    <polygon class="cls-1" points="102.83 174.38 161.15 161.64 140.05 182.51 102.83 174.38"/>
    <polygon class="cls-5" points="131.44 161.64 161.15 161.64 154.16 139.31 131.44 161.64"/>
    <polygon class="cls-7" points="154.16 139.31 183.72 139.31 161.15 161.64 154.16 139.31"/>
    <polygon class="cls-1" points="74.22 161.64 51.5 139.31 44.51 161.64 74.22 161.64"/>
    <polygon class="cls-7" points="51.5 139.31 21.94 139.31 44.51 161.64 51.5 139.31"/>
    <g>
      <polygon class="cls-2" points="70.93 14.73 134.73 14.73 70.93 35.61 70.93 14.73"/>
      <polygon class="cls-6" points="70.93 14.73 134.73 35.61 70.93 35.61 70.93 14.73"/>
      <polygon class="cls-5" points="70.93 35.61 102.83 25.17 70.93 14.73 70.93 35.61"/>
      <polygon class="cls-1" points="134.73 14.73 102.83 25.17 134.73 35.61 134.73 14.73"/>
    </g>
    <polygon class="cls-5" points="75.8 44.07 96.67 35.63 75.8 35.63 75.8 44.07"/>
    <polygon class="cls-5" points="108.99 35.63 129.85 44.07 129.85 35.61 108.99 35.63"/>
    <polygon class="cls-3" points="96.67 90.48 75.8 81.83 67.72 100.94 96.67 90.48"/>
    <polygon class="cls-3" points="108.99 90.48 129.86 81.83 137.94 100.94 108.99 90.48"/>
  </g>
</svg>